<?xml version="1.0" encoding="UTF-8" standalone="no"?>
<!DOCTYPE svg PUBLIC "-//W3C//DTD SVG 1.1//EN" "http://www.w3.org/Graphics/SVG/1.1/DTD/svg11.dtd">
<svg xmlns="http://www.w3.org/2000/svg" version="1.1" viewBox="0.00 0.00 500.00 500.00">
<g stroke-width="2.00" fill="none" stroke-linecap="butt">
<path stroke="#04949d" vector-effect="non-scaling-stroke" d="
  M 279.01 172.38
  Q 281.94 168.91 289.18 161.68
  Q 307.53 143.40 324.81 119.32
  C 339.73 98.53 351.89 75.10 358.13 50.25
  A 2.21 2.21 0.0 0 0 357.02 47.76
  C 308.29 21.80 251.77 14.85 198.03 27.53
  Q 152.48 38.28 116.19 65.21
  Q 65.61 102.74 40.66 161.10
  Q 26.23 194.86 23.20 229.77
  Q 18.40 284.96 38.69 336.79
  C 56.31 381.80 88.24 420.36 128.62 446.63
  C 167.94 472.20 217.71 485.51 264.82 482.16
  Q 313.38 478.70 356.90 455.70
  C 365.10 451.37 371.86 446.75 380.24 441.42
  A 0.85 0.84 59.5 0 0 380.52 440.31
  Q 366.99 415.13 347.86 393.12
  Q 338.38 382.21 328.48 372.43
  Q 328.20 372.16 328.17 371.90
  Q 328.12 371.37 327.65 371.42
  A 0.43 0.42 -25.0 0 1 327.31 371.30
  Q 318.88 362.80 311.94 357.07
  C 305.70 351.91 300.56 347.27 294.74 342.68
  Q 282.53 333.03 273.34 325.70
  C 271.95 324.59 270.68 323.05 269.34 321.76"
/>
<path stroke="#048f96" vector-effect="non-scaling-stroke" d="
  M 242.31 252.54
  A 0.67 0.66 45.4 0 1 241.53 252.53
  Q 239.81 251.24 238.19 249.56
  Q 231.01 242.09 226.74 237.88
  C 224.68 235.85 222.28 236.32 220.21 238.46
  Q 216.91 241.86 215.04 243.54
  C 212.96 245.41 211.27 247.93 213.79 250.46
  Q 230.63 267.40 238.67 275.58
  C 244.01 281.01 248.31 273.86 251.46 270.71
  Q 259.99 262.20 294.97 227.97
  C 297.40 225.60 296.25 222.52 293.81 220.29
  Q 290.27 217.06 287.97 214.49
  C 286.13 212.43 283.97 211.69 281.95 213.71
  Q 257.38 238.22 244.76 250.51
  Q 243.63 251.60 242.31 252.54"
/>
</g>
<path fill="#06efbf" d="
  M 257.03 11.09
  Q 269.77 11.45 283.74 13.45
  C 346.41 22.43 400.17 54.52 438.91 104.58
  C 476.35 152.98 493.81 215.35 487.16 276.17
  C 480.21 339.62 449.46 396.85 400.30 437.80
  C 361.57 470.06 314.50 488.58 263.99 491.59
  Q 252.09 492.30 243.52 492.06
  Q 234.96 491.82 223.11 490.44
  C 172.85 484.60 126.89 463.47 90.04 429.09
  C 43.25 385.44 15.76 326.58 12.38 262.84
  C 9.16 201.74 30.09 140.45 70.19 94.23
  C 111.68 46.42 167.15 17.40 230.22 11.95
  Q 244.28 10.73 257.03 11.09
  Z
  M 269.34 321.76
  Q 284.24 318.21 297.01 309.84
  C 302.45 306.27 307.18 301.57 312.06 297.30
  Q 313.59 295.96 315.73 294.72
  Q 326.19 288.67 339.98 279.74
  Q 349.45 273.60 377.57 251.33
  C 380.16 249.29 382.16 245.70 378.93 243.04
  Q 368.38 234.35 352.24 222.46
  C 341.68 214.69 326.48 205.32 318.10 200.15
  C 313.58 197.35 310.90 193.91 305.43 188.34
  C 298.72 181.51 289.61 177.08 279.01 172.38
  Q 281.94 168.91 289.18 161.68
  Q 307.53 143.40 324.81 119.32
  C 339.73 98.53 351.89 75.10 358.13 50.25
  A 2.21 2.21 0.0 0 0 357.02 47.76
  C 308.29 21.80 251.77 14.85 198.03 27.53
  Q 152.48 38.28 116.19 65.21
  Q 65.61 102.74 40.66 161.10
  Q 26.23 194.86 23.20 229.77
  Q 18.40 284.96 38.69 336.79
  C 56.31 381.80 88.24 420.36 128.62 446.63
  C 167.94 472.20 217.71 485.51 264.82 482.16
  Q 313.38 478.70 356.90 455.70
  C 365.10 451.37 371.86 446.75 380.24 441.42
  A 0.85 0.84 59.5 0 0 380.52 440.31
  Q 366.99 415.13 347.86 393.12
  Q 338.38 382.21 328.48 372.43
  Q 328.20 372.16 328.17 371.90
  Q 328.12 371.37 327.65 371.42
  A 0.43 0.42 -25.0 0 1 327.31 371.30
  Q 318.88 362.80 311.94 357.07
  C 305.70 351.91 300.56 347.27 294.74 342.68
  Q 282.53 333.03 273.34 325.70
  C 271.95 324.59 270.68 323.05 269.34 321.76
  Z"
/>
<path fill="#02397a" d="
  M 279.01 172.38
  Q 276.03 171.85 271.92 170.89
  C 252.34 166.30 229.41 168.53 212.62 180.19
  Q 211.05 181.29 206.05 183.84
  Q 182.09 196.04 159.34 212.24
  C 147.21 220.89 134.41 231.77 119.88 243.36
  Q 115.79 246.62 119.43 249.83
  Q 127.01 256.50 145.24 271.02
  Q 167.89 289.08 193.81 302.73
  Q 196.21 303.99 207.81 309.43
  Q 210.09 310.50 217.29 314.64
  C 232.76 323.54 251.96 325.17 269.34 321.76
  C 270.68 323.05 271.95 324.59 273.34 325.70
  Q 282.53 333.03 294.74 342.68
  C 300.56 347.27 305.70 351.91 311.94 357.07
  Q 318.88 362.80 327.31 371.30
  A 0.43 0.42 -25.0 0 0 327.65 371.42
  Q 328.12 371.37 328.17 371.90
  Q 328.20 372.16 328.48 372.43
  Q 338.38 382.21 347.86 393.12
  Q 366.99 415.13 380.52 440.31
  A 0.85 0.84 59.5 0 1 380.24 441.42
  C 371.86 446.75 365.10 451.37 356.90 455.70
  Q 313.38 478.70 264.82 482.16
  C 217.71 485.51 167.94 472.20 128.62 446.63
  C 88.24 420.36 56.31 381.80 38.69 336.79
  Q 18.40 284.96 23.20 229.77
  Q 26.23 194.86 40.66 161.10
  Q 65.61 102.74 116.19 65.21
  Q 152.48 38.28 198.03 27.53
  C 251.77 14.85 308.29 21.80 357.02 47.76
  A 2.21 2.21 0.0 0 1 358.13 50.25
  C 351.89 75.10 339.73 98.53 324.81 119.32
  Q 307.53 143.40 289.18 161.68
  Q 281.94 168.91 279.01 172.38
  Z"
/>
<path fill="#012f6d" d="
  M 326.13 245.96
  A 72.58 72.58 0.0 0 1 253.55 318.54
  A 72.58 72.58 0.0 0 1 180.97 245.96
  A 72.58 72.58 0.0 0 1 253.55 173.38
  A 72.58 72.58 0.0 0 1 326.13 245.96
  Z
  M 242.31 252.54
  A 0.67 0.66 45.4 0 1 241.53 252.53
  Q 239.81 251.24 238.19 249.56
  Q 231.01 242.09 226.74 237.88
  C 224.68 235.85 222.28 236.32 220.21 238.46
  Q 216.91 241.86 215.04 243.54
  C 212.96 245.41 211.27 247.93 213.79 250.46
  Q 230.63 267.40 238.67 275.58
  C 244.01 281.01 248.31 273.86 251.46 270.71
  Q 259.99 262.20 294.97 227.97
  C 297.40 225.60 296.25 222.52 293.81 220.29
  Q 290.27 217.06 287.97 214.49
  C 286.13 212.43 283.97 211.69 281.95 213.71
  Q 257.38 238.22 244.76 250.51
  Q 243.63 251.60 242.31 252.54
  Z"
/>
<path fill="#06efbf" d="
  M 242.31 252.54
  Q 243.63 251.60 244.76 250.51
  Q 257.38 238.22 281.95 213.71
  C 283.97 211.69 286.13 212.43 287.97 214.49
  Q 290.27 217.06 293.81 220.29
  C 296.25 222.52 297.40 225.60 294.97 227.97
  Q 259.99 262.20 251.46 270.71
  C 248.31 273.86 244.01 281.01 238.67 275.58
  Q 230.63 267.40 213.79 250.46
  C 211.27 247.93 212.96 245.41 215.04 243.54
  Q 216.91 241.86 220.21 238.46
  C 222.28 236.32 224.68 235.85 226.74 237.88
  Q 231.01 242.09 238.19 249.56
  Q 239.81 251.24 241.53 252.53
  A 0.67 0.66 45.4 0 0 242.31 252.54
  Z"
/>
</svg>
